<svg xmlns="http://www.w3.org/2000/svg">
  <symbol id="cart">
    <path d="M4.33333 1L1 5.4V20.8C1 21.3835 1.23413 21.9431 1.65087 22.3556C2.06762 22.7682 2.63285 23 3.22222 23H18.7778C19.3671 23 19.9324 22.7682 20.3491 22.3556C20.7659 21.9431 21 21.3835 21 20.8V5.4L17.6667 1H4.33333Z" stroke="black" stroke-width="2" stroke-linecap="round" stroke-linejoin="round"/>
    <path d="M1 5.39996H21" stroke="black" stroke-width="2" stroke-linecap="round" stroke-linejoin="round"/>
    <path d="M15.4448 9.79993C15.4448 10.9669 14.9765 12.086 14.1431 12.9112C13.3096 13.7364 12.1791 14.1999 11.0004 14.1999C9.82161 14.1999 8.69115 13.7364 7.85766 12.9112C7.02416 12.086 6.55591 10.9669 6.55591 9.79993" stroke="black" stroke-width="2" stroke-linecap="round" stroke-linejoin="round"/>
  </symbol>
  <symbol id="likes">
    <path d="M23.1494 2.94496C22.5629 2.32835 21.8667 1.83921 21.1003 1.50549C20.334 1.17177 19.5126 1 18.6831 1C17.8535 1 17.0321 1.17177 16.2658 1.50549C15.4994 1.83921 14.8032 2.32835 14.2167 2.94496L12.9997 4.22404L11.7826 2.94496C10.5981 1.70004 8.99152 1.00065 7.31633 1.00065C5.64114 1.00065 4.03455 1.70004 2.85001 2.94496C1.66547 4.18988 1 5.87836 1 7.63895C1 9.39954 1.66547 11.088 2.85001 12.3329L4.06705 13.612L12.9997 23L21.9323 13.612L23.1494 12.3329C23.7361 11.7166 24.2015 10.9849 24.519 10.1794C24.8366 9.37403 25 8.51076 25 7.63895C25 6.76714 24.8366 5.90387 24.519 5.09846C24.2015 4.29305 23.7361 3.56128 23.1494 2.94496V2.94496Z" stroke="black" stroke-width="2" stroke-linecap="round" stroke-linejoin="round"/>
  </symbol>
  <symbol id="search">
    <path d="M10.7778 20.5555C16.1779 20.5555 20.5555 16.1779 20.5555 10.7778C20.5555 5.37765 16.1779 1 10.7778 1C5.37765 1 1 5.37765 1 10.7778C1 16.1779 5.37765 20.5555 10.7778 20.5555Z" stroke="black" stroke-width="2" stroke-linecap="round" stroke-linejoin="round"/>
    <path d="M22.9998 22.9999L17.6831 17.6833" stroke="black" stroke-width="2" stroke-linecap="round" stroke-linejoin="round"/>
  </symbol>
  <symbol id="user">
    <path d="M23 26V23.2222C23 21.7488 22.4205 20.3357 21.3891 19.2939C20.3576 18.252 18.9587 17.6667 17.5 17.6667H6.5C5.04131 17.6667 3.64236 18.252 2.61091 19.2939C1.57946 20.3357 1 21.7488 1 23.2222V26" stroke="black" stroke-width="2" stroke-linecap="round" stroke-linejoin="round"/>
    <path d="M12 12.1111C15.0376 12.1111 17.5 9.6238 17.5 6.55556C17.5 3.48731 15.0376 1 12 1C8.96243 1 6.5 3.48731 6.5 6.55556C6.5 9.6238 8.96243 12.1111 12 12.1111Z" stroke="black" stroke-width="2" stroke-linecap="round" stroke-linejoin="round"/>
  </symbol>
</svg>
